<svg id="Layer_1" height="512" viewBox="0 0 128 128" width="512" xmlns="http://www.w3.org/2000/svg" data-name="Layer 1"><path d="m31.935 29.564a1.75 1.75 0 0 0 -1.75 1.75v25.91a1.75 1.75 0 0 0 3.5 0v-25.91a1.75 1.75 0 0 0 -1.75-1.75z" fill="#ff9e21"/><path d="m117 67.078a1.75 1.75 0 0 0 -1.75 1.75v32.136a1.75 1.75 0 0 0 3.5 0v-32.136a1.75 1.75 0 0 0 -1.75-1.75z" fill="#3440da"/><path d="m53.5 52.5a1.75 1.75 0 0 0 -1.75 1.75v32.411a1.75 1.75 0 0 0 3.5 0v-32.416a1.75 1.75 0 0 0 -1.75-1.745z" fill="#b30042"/><path d="m92.109 46.578a1.75 1.75 0 0 0 -1.75 1.75v32.417a1.75 1.75 0 0 0 3.5 0v-32.417a1.75 1.75 0 0 0 -1.75-1.75z" fill="#b30042"/><path d="m93.859 51.38-42.109 6.589v-16.784l41.764-6.535z" fill="#ff415a"/><ellipse cx="42.154" cy="86.661" fill="#ff415a" rx="13.096" ry="11.833"/><ellipse cx="80.764" cy="80.745" fill="#b30042" rx="13.096" ry="11.833"/><path d="m51.916 29.243-21.731 5.252v-13.415l21.731-5.252z" fill="#ffd322"/><ellipse cx="23.217" cy="57.224" fill="#ffd322" rx="10.467" ry="9.458"/><ellipse cx="108.283" cy="100.964" fill="#5f69e2" rx="10.467" ry="9.458"/><path d="m67.668 55.478 26.191-4.098-.345-16.73-25.846 4.044z" fill="#b30042"/><g fill="#500000"><path d="m91.839 33.142-38.609 6.041a1.749 1.749 0 0 0 -1.479 1.729v37.008a15.4 15.4 0 0 0 -11.351-4.842c-8.186 0-14.846 6.094-14.846 13.583s6.66 13.584 14.846 13.584 14.85-6.094 14.85-13.584v-27.469l16.59-2.6a1.75 1.75 0 0 0 -.54-3.452l-16.05 2.51v-13.242l35.109-5.493v13.241l-5.359.844a1.75 1.75 0 1 0 .541 3.457l4.822-.755v18.298a15.4 15.4 0 0 0 -11.346-4.842c-8.186 0-14.846 6.094-14.846 13.584s6.66 13.583 14.846 13.583 14.846-6.094 14.846-13.583v-45.872a1.749 1.749 0 0 0 -2.021-1.729zm-51.439 63.603c-6.256 0-11.346-4.523-11.346-10.084s5.094-10.083 11.346-10.083 11.35 4.522 11.35 10.083-5.09 10.084-11.35 10.084zm38.609-5.917c-6.256 0-11.346-4.523-11.346-10.083s5.09-10.084 11.346-10.084 11.346 4.523 11.346 10.084-5.085 10.083-11.341 10.083z"/><path d="m78.022 55.607a1.835 1.835 0 0 0 .271-.021l.99-.154a1.75 1.75 0 0 0 -.539-3.459l-.99.154a1.75 1.75 0 0 0 .268 3.479z"/><path d="m33.685 57.225v-35.19l16.481-3.983v9.814l-12.023 2.905a1.75 1.75 0 1 0 .822 3.4l13.362-3.229a1.751 1.751 0 0 0 1.339-1.7v-13.414a1.751 1.751 0 0 0 -2.161-1.7l-19.982 4.828a1.751 1.751 0 0 0 -1.339 1.7v36.569c0 4.25-3.911 7.708-8.718 7.708s-8.717-3.458-8.717-7.708 3.91-7.709 8.717-7.709a9.854 9.854 0 0 1 1.791.163 1.75 1.75 0 1 0 .637-3.441 13.333 13.333 0 0 0 -2.428-.222c-6.736 0-12.217 5.028-12.217 11.209s5.48 11.208 12.217 11.208 12.219-5.033 12.219-11.208z"/><path d="m117 67.078a1.75 1.75 0 0 0 -1.75 1.75v24.3a12.733 12.733 0 0 0 -8.717-3.37c-6.737 0-12.218 5.028-12.218 11.208s5.48 11.208 12.218 11.208 12.217-5.028 12.217-11.208v-32.138a1.75 1.75 0 0 0 -1.75-1.75zm-10.467 41.594c-4.807 0-8.718-3.458-8.718-7.708s3.911-7.708 8.718-7.708 8.717 3.458 8.717 7.708-3.91 7.708-8.717 7.708z"/></g></svg>